<svg width="119" height="15" viewBox="0 0 119 15" fill="none" xmlns="http://www.w3.org/2000/svg">
<path d="M5.98039 11.06C4.95039 11.06 4.04539 10.835 3.26539 10.385C2.48539 9.925 1.87539 9.295 1.43539 8.495C1.00539 7.695 0.790391 6.78 0.790391 5.75C0.790391 4.71 1.00539 3.79 1.43539 2.99C1.87539 2.19 2.48539 1.565 3.26539 1.115C4.04539 0.664999 4.95039 0.439999 5.98039 0.439999C7.01039 0.439999 7.91539 0.664999 8.69539 1.115C9.47539 1.565 10.0804 2.19 10.5104 2.99C10.9504 3.79 11.1704 4.71 11.1704 5.75C11.1704 6.78 10.9504 7.695 10.5104 8.495C10.0804 9.295 9.47539 9.925 8.69539 10.385C7.91539 10.835 7.01039 11.06 5.98039 11.06ZM5.98039 10.505C6.92039 10.505 7.73539 10.305 8.42539 9.905C9.11539 9.505 9.64539 8.945 10.0154 8.225C10.3954 7.505 10.5854 6.68 10.5854 5.75C10.5854 4.8 10.3954 3.97 10.0154 3.26C9.64539 2.54 9.11539 1.98 8.42539 1.58C7.73539 1.18 6.92039 0.979999 5.98039 0.979999C5.04039 0.979999 4.22539 1.18 3.53539 1.58C2.84539 1.98 2.31039 2.54 1.93039 3.26C1.56039 3.97 1.37539 4.8 1.37539 5.75C1.37539 6.68 1.56039 7.505 1.93039 8.225C2.31039 8.945 2.84539 9.505 3.53539 9.905C4.22539 10.305 5.04039 10.505 5.98039 10.505ZM5.98039 9.215C5.38039 9.215 4.83539 9.08 4.34539 8.81C3.85539 8.54 3.46039 8.145 3.16039 7.625C2.87039 7.095 2.72539 6.465 2.72539 5.735C2.72539 5.005 2.87039 4.38 3.16039 3.86C3.46039 3.34 3.85539 2.945 4.34539 2.675C4.83539 2.395 5.38039 2.255 5.98039 2.255C6.72039 2.255 7.37039 2.455 7.93039 2.855C8.49039 3.245 8.86539 3.81 9.05539 4.55H7.90039C7.76039 4.1 7.51539 3.76 7.16539 3.53C6.81539 3.29 6.41539 3.17 5.96539 3.17C5.38539 3.17 4.88539 3.385 4.46539 3.815C4.04539 4.245 3.83539 4.89 3.83539 5.75C3.83539 6.6 4.04539 7.24 4.46539 7.67C4.88539 8.1 5.38539 8.315 5.96539 8.315C6.94539 8.315 7.59039 7.86 7.90039 6.95H9.05539C8.86539 7.65 8.49039 8.205 7.93039 8.615C7.37039 9.015 6.72039 9.215 5.98039 9.215ZM16.8493 11V10.115C17.5593 9.555 18.2293 8.99 18.8593 8.42C19.4993 7.84 20.0643 7.27 20.5543 6.71C21.0543 6.15 21.4443 5.6 21.7243 5.06C22.0143 4.52 22.1593 4 22.1593 3.5C22.1593 3.13 22.0943 2.785 21.9643 2.465C21.8443 2.145 21.6443 1.89 21.3643 1.7C21.0843 1.5 20.7043 1.4 20.2243 1.4C19.7643 1.4 19.3793 1.505 19.0693 1.715C18.7593 1.915 18.5243 2.185 18.3643 2.525C18.2143 2.865 18.1393 3.23 18.1393 3.62H16.9243C16.9243 2.93 17.0693 2.34 17.3593 1.85C17.6493 1.35 18.0443 0.969999 18.5443 0.709999C19.0443 0.45 19.6093 0.32 20.2393 0.32C21.1693 0.32 21.9293 0.585 22.5193 1.115C23.1193 1.635 23.4193 2.415 23.4193 3.455C23.4193 4.075 23.2643 4.69 22.9543 5.3C22.6443 5.9 22.2493 6.485 21.7693 7.055C21.2893 7.615 20.7743 8.14 20.2243 8.63C19.6843 9.12 19.1793 9.56 18.7093 9.95H23.7793V11H16.8493ZM29.5468 11.18C28.6168 11.18 27.8118 10.955 27.1318 10.505C26.4618 10.045 25.9468 9.41 25.5868 8.6C25.2268 7.78 25.0468 6.83 25.0468 5.75C25.0468 4.67 25.2268 3.725 25.5868 2.915C25.9468 2.095 26.4618 1.46 27.1318 1.01C27.8118 0.55 28.6168 0.32 29.5468 0.32C30.4768 0.32 31.2768 0.55 31.9468 1.01C32.6168 1.46 33.1318 2.095 33.4918 2.915C33.8518 3.725 34.0318 4.67 34.0318 5.75C34.0318 6.83 33.8518 7.78 33.4918 8.6C33.1318 9.41 32.6168 10.045 31.9468 10.505C31.2768 10.955 30.4768 11.18 29.5468 11.18ZM29.5468 10.07C30.1568 10.07 30.7018 9.9 31.1818 9.56C31.6718 9.21 32.0518 8.715 32.3218 8.075C32.6018 7.425 32.7418 6.65 32.7418 5.75C32.7418 4.85 32.6018 4.08 32.3218 3.44C32.0518 2.8 31.6718 2.31 31.1818 1.97C30.7018 1.62 30.1568 1.445 29.5468 1.445C28.9268 1.445 28.3768 1.62 27.8968 1.97C27.4168 2.31 27.0368 2.8 26.7568 3.44C26.4768 4.08 26.3368 4.85 26.3368 5.75C26.3368 6.65 26.4768 7.425 26.7568 8.075C27.0368 8.715 27.4168 9.21 27.8968 9.56C28.3768 9.9 28.9268 10.07 29.5468 10.07ZM35.5407 11V10.115C36.2507 9.555 36.9207 8.99 37.5507 8.42C38.1907 7.84 38.7557 7.27 39.2457 6.71C39.7457 6.15 40.1357 5.6 40.4157 5.06C40.7057 4.52 40.8507 4 40.8507 3.5C40.8507 3.13 40.7857 2.785 40.6557 2.465C40.5357 2.145 40.3357 1.89 40.0557 1.7C39.7757 1.5 39.3957 1.4 38.9157 1.4C38.4557 1.4 38.0707 1.505 37.7607 1.715C37.4507 1.915 37.2157 2.185 37.0557 2.525C36.9057 2.865 36.8307 3.23 36.8307 3.62H35.6157C35.6157 2.93 35.7607 2.34 36.0507 1.85C36.3407 1.35 36.7357 0.969999 37.2357 0.709999C37.7357 0.45 38.3007 0.32 38.9307 0.32C39.8607 0.32 40.6207 0.585 41.2107 1.115C41.8107 1.635 42.1107 2.415 42.1107 3.455C42.1107 4.075 41.9557 4.69 41.6457 5.3C41.3357 5.9 40.9407 6.485 40.4607 7.055C39.9807 7.615 39.4657 8.14 38.9157 8.63C38.3757 9.12 37.8707 9.56 37.4007 9.95H42.4707V11H35.5407ZM45.3247 11V1.91L43.6297 2.285V1.415L45.7447 0.499999H46.5997V11H45.3247ZM57.3908 11.18C56.3608 11.18 55.4708 10.955 54.7208 10.505C53.9808 10.045 53.4058 9.41 52.9958 8.6C52.5858 7.78 52.3808 6.83 52.3808 5.75C52.3808 4.68 52.5858 3.74 52.9958 2.93C53.4058 2.11 53.9808 1.47 54.7208 1.01C55.4708 0.55 56.3608 0.32 57.3908 0.32C58.5908 0.32 59.5658 0.61 60.3158 1.19C61.0758 1.76 61.5608 2.56 61.7708 3.59H60.3758C60.2158 2.94 59.8858 2.42 59.3858 2.03C58.8958 1.63 58.2308 1.43 57.3908 1.43C56.6408 1.43 55.9858 1.605 55.4258 1.955C54.8658 2.295 54.4308 2.79 54.1208 3.44C53.8208 4.08 53.6708 4.85 53.6708 5.75C53.6708 6.65 53.8208 7.425 54.1208 8.075C54.4308 8.715 54.8658 9.21 55.4258 9.56C55.9858 9.9 56.6408 10.07 57.3908 10.07C58.2308 10.07 58.8958 9.88 59.3858 9.5C59.8858 9.11 60.2158 8.595 60.3758 7.955H61.7708C61.5608 8.965 61.0758 9.755 60.3158 10.325C59.5658 10.895 58.5908 11.18 57.3908 11.18ZM66.8967 11.18C66.1967 11.18 65.5667 11.02 65.0067 10.7C64.4467 10.38 64.0017 9.93 63.6717 9.35C63.3517 8.76 63.1917 8.07 63.1917 7.28C63.1917 6.49 63.3567 5.805 63.6867 5.225C64.0167 4.635 64.4617 4.18 65.0217 3.86C65.5917 3.54 66.2267 3.38 66.9267 3.38C67.6267 3.38 68.2567 3.54 68.8167 3.86C69.3767 4.18 69.8167 4.635 70.1367 5.225C70.4667 5.805 70.6317 6.49 70.6317 7.28C70.6317 8.07 70.4667 8.76 70.1367 9.35C69.8067 9.93 69.3567 10.38 68.7867 10.7C68.2267 11.02 67.5967 11.18 66.8967 11.18ZM66.8967 10.1C67.3267 10.1 67.7267 9.995 68.0967 9.785C68.4667 9.575 68.7667 9.26 68.9967 8.84C69.2267 8.42 69.3417 7.9 69.3417 7.28C69.3417 6.66 69.2267 6.14 68.9967 5.72C68.7767 5.3 68.4817 4.985 68.1117 4.775C67.7417 4.565 67.3467 4.46 66.9267 4.46C66.4967 4.46 66.0967 4.565 65.7267 4.775C65.3567 4.985 65.0567 5.3 64.8267 5.72C64.5967 6.14 64.4817 6.66 64.4817 7.28C64.4817 7.9 64.5967 8.42 64.8267 8.84C65.0567 9.26 65.3517 9.575 65.7117 9.785C66.0817 9.995 66.4767 10.1 66.8967 10.1ZM72.3836 11V3.56H73.5236L73.6136 4.64C73.8536 4.24 74.1736 3.93 74.5736 3.71C74.9736 3.49 75.4236 3.38 75.9236 3.38C76.5136 3.38 77.0186 3.5 77.4386 3.74C77.8686 3.98 78.1986 4.345 78.4286 4.835C78.6886 4.385 79.0436 4.03 79.4936 3.77C79.9536 3.51 80.4486 3.38 80.9786 3.38C81.8686 3.38 82.5786 3.65 83.1086 4.19C83.6386 4.72 83.9036 5.54 83.9036 6.65V11H82.6586V6.785C82.6586 6.015 82.5036 5.435 82.1936 5.045C81.8836 4.655 81.4386 4.46 80.8586 4.46C80.2586 4.46 79.7586 4.695 79.3586 5.165C78.9686 5.625 78.7736 6.285 78.7736 7.145V11H77.5136V6.785C77.5136 6.015 77.3586 5.435 77.0486 5.045C76.7386 4.655 76.2936 4.46 75.7136 4.46C75.1236 4.46 74.6286 4.695 74.2286 5.165C73.8386 5.625 73.6436 6.285 73.6436 7.145V11H72.3836ZM85.8016 14.3V3.56H86.9416L87.0616 4.79C87.3016 4.43 87.6416 4.105 88.0816 3.815C88.5316 3.525 89.1016 3.38 89.7916 3.38C90.5316 3.38 91.1766 3.55 91.7266 3.89C92.2766 4.23 92.7016 4.695 93.0016 5.285C93.3116 5.875 93.4666 6.545 93.4666 7.295C93.4666 8.045 93.3116 8.715 93.0016 9.305C92.7016 9.885 92.2716 10.345 91.7116 10.685C91.1616 11.015 90.5166 11.18 89.7766 11.18C89.1666 11.18 88.6216 11.055 88.1416 10.805C87.6716 10.555 87.3116 10.205 87.0616 9.755V14.3H85.8016ZM89.6416 10.085C90.1416 10.085 90.5816 9.97 90.9616 9.74C91.3416 9.5 91.6416 9.17 91.8616 8.75C92.0816 8.33 92.1916 7.84 92.1916 7.28C92.1916 6.72 92.0816 6.23 91.8616 5.81C91.6416 5.39 91.3416 5.065 90.9616 4.835C90.5816 4.595 90.1416 4.475 89.6416 4.475C89.1416 4.475 88.7016 4.595 88.3216 4.835C87.9416 5.065 87.6416 5.39 87.4216 5.81C87.2016 6.23 87.0916 6.72 87.0916 7.28C87.0916 7.84 87.2016 8.33 87.4216 8.75C87.6416 9.17 87.9416 9.5 88.3216 9.74C88.7016 9.97 89.1416 10.085 89.6416 10.085ZM97.6955 11.18C97.0755 11.18 96.5605 11.075 96.1505 10.865C95.7405 10.655 95.4355 10.375 95.2355 10.025C95.0355 9.675 94.9355 9.295 94.9355 8.885C94.9355 8.125 95.2255 7.54 95.8055 7.13C96.3855 6.72 97.1755 6.515 98.1755 6.515H100.186V6.425C100.186 5.775 100.016 5.285 99.6755 4.955C99.3355 4.615 98.8805 4.445 98.3105 4.445C97.8205 4.445 97.3955 4.57 97.0355 4.82C96.6855 5.06 96.4655 5.415 96.3755 5.885H95.0855C95.1355 5.345 95.3155 4.89 95.6255 4.52C95.9455 4.15 96.3405 3.87 96.8105 3.68C97.2805 3.48 97.7805 3.38 98.3105 3.38C99.3505 3.38 100.131 3.66 100.651 4.22C101.181 4.77 101.446 5.505 101.446 6.425V11H100.321L100.246 9.665C100.036 10.085 99.7255 10.445 99.3155 10.745C98.9155 11.035 98.3755 11.18 97.6955 11.18ZM97.8905 10.115C98.3705 10.115 98.7805 9.99 99.1205 9.74C99.4705 9.49 99.7355 9.165 99.9155 8.765C100.096 8.365 100.186 7.945 100.186 7.505V7.49H98.2805C97.5405 7.49 97.0155 7.62 96.7055 7.88C96.4055 8.13 96.2555 8.445 96.2555 8.825C96.2555 9.215 96.3955 9.53 96.6755 9.77C96.9655 10 97.3705 10.115 97.8905 10.115ZM103.336 11V3.56H104.476L104.551 4.895C104.791 4.425 105.136 4.055 105.586 3.785C106.036 3.515 106.546 3.38 107.116 3.38C107.996 3.38 108.696 3.65 109.216 4.19C109.746 4.72 110.011 5.54 110.011 6.65V11H108.751V6.785C108.751 5.235 108.111 4.46 106.831 4.46C106.191 4.46 105.656 4.695 105.226 5.165C104.806 5.625 104.596 6.285 104.596 7.145V11H103.336ZM112.51 14.3L114.355 10.28H113.92L110.965 3.56H112.33L114.79 9.35L117.4 3.56H118.705L113.83 14.3H112.51Z" fill="white" fill-opacity="0.8"/>
</svg>
