<svg width="48" height="38" viewBox="0 0 48 38" fill="none" xmlns="http://www.w3.org/2000/svg">
<path fill-rule="evenodd" clip-rule="evenodd" d="M45.9165 37.6666C45.9165 37.6666 48.9998 37.6666 48.9998 34.5555C48.9998 31.4444 45.9165 22.1111 33.5832 22.1111C21.2498 22.1111 18.1665 31.4444 18.1665 34.5555C18.1665 37.6666 21.2498 37.6666 21.2498 37.6666H45.9165ZM21.3177 34.5555H45.8487C45.8631 34.5538 45.8775 34.5518 45.8918 34.5493L45.9165 34.5431C45.9103 33.7218 45.4016 31.3386 43.5732 29.192C41.8712 27.1791 38.8803 25.2222 33.5832 25.2222C28.2891 25.2222 25.2983 27.1822 23.5932 29.192C21.7648 31.3386 21.2529 33.7249 21.2498 34.5431C21.2724 34.5475 21.295 34.5516 21.3177 34.5555ZM33.5832 15.8889C35.2187 15.8889 36.7872 15.2333 37.9437 14.0664C39.1001 12.8995 39.7498 11.3169 39.7498 9.66665C39.7498 8.01641 39.1001 6.43376 37.9437 5.26687C36.7872 4.09998 35.2187 3.44442 33.5832 3.44442C31.9477 3.44442 30.3792 4.09998 29.2227 5.26687C28.0662 6.43376 27.4165 8.01641 27.4165 9.66665C27.4165 11.3169 28.0662 12.8995 29.2227 14.0664C30.3792 15.2333 31.9477 15.8889 33.5832 15.8889ZM42.8332 9.66665C42.8332 10.8923 42.5939 12.106 42.1291 13.2384C41.6642 14.3707 40.9828 15.3996 40.1239 16.2663C39.265 17.133 38.2453 17.8205 37.123 18.2895C36.0007 18.7586 34.7979 19 33.5832 19C32.3684 19 31.1656 18.7586 30.0433 18.2895C28.9211 17.8205 27.9014 17.133 27.0424 16.2663C26.1835 15.3996 25.5021 14.3707 25.0373 13.2384C24.5724 12.106 24.3332 10.8923 24.3332 9.66665C24.3332 7.19129 25.3077 4.81732 27.0424 3.06698C28.7771 1.31664 31.1299 0.333313 33.5832 0.333313C36.0364 0.333313 38.3892 1.31664 40.1239 3.06698C41.8586 4.81732 42.8332 7.19129 42.8332 9.66665ZM21.0525 22.9822C19.8191 22.5903 18.5477 22.3327 17.26 22.2138C16.5364 22.1443 15.81 22.1101 15.0832 22.1111C2.74984 22.1111 -0.333496 31.4444 -0.333496 34.5555C-0.333496 36.6306 0.693254 37.6666 2.74984 37.6666H15.7492C15.2921 36.6954 15.0641 35.6305 15.0832 34.5555C15.0832 31.4133 16.2456 28.2026 18.444 25.5209C19.1933 24.6062 20.0658 23.7506 21.0525 22.9822ZM14.8365 25.2222C9.6935 25.2844 6.77359 27.2133 5.09317 29.192C3.25242 31.3511 2.74984 33.7435 2.74984 34.5555H11.9998C11.9998 31.3044 12.9958 28.0658 14.8365 25.2222ZM4.2915 11.2222C4.2915 8.74685 5.26605 6.37288 7.00077 4.62254C8.73548 2.8722 11.0883 1.88887 13.5415 1.88887C15.9948 1.88887 18.3475 2.8722 20.0822 4.62254C21.817 6.37288 22.7915 8.74685 22.7915 11.2222C22.7915 13.6976 21.817 16.0715 20.0822 17.8219C18.3475 19.5722 15.9948 20.5555 13.5415 20.5555C11.0883 20.5555 8.73548 19.5722 7.00077 17.8219C5.26605 16.0715 4.2915 13.6976 4.2915 11.2222ZM13.5415 4.99998C11.906 4.99998 10.3375 5.65553 9.18101 6.82243C8.02454 7.98932 7.37484 9.57197 7.37484 11.2222C7.37484 12.8724 8.02454 14.4551 9.18101 15.622C10.3375 16.7889 11.906 17.4444 13.5415 17.4444C15.177 17.4444 16.7455 16.7889 17.902 15.622C19.0585 14.4551 19.7082 12.8724 19.7082 11.2222C19.7082 9.57197 19.0585 7.98932 17.902 6.82243C16.7455 5.65553 15.177 4.99998 13.5415 4.99998Z" fill="#23A6F0"/>
</svg>
